<svg width="30" height="30" viewBox="0 0 30 30" fill="none" xmlns="http://www.w3.org/2000/svg">
<path d="M6.875 3.4375C6.875 3.18886 6.77623 2.9504 6.60041 2.77459C6.4246 2.59877 6.18614 2.5 5.9375 2.5C5.68886 2.5 5.4504 2.59877 5.27459 2.77459C5.09877 2.9504 5 3.18886 5 3.4375V26.5625C5 26.8111 5.09877 27.0496 5.27459 27.2254C5.4504 27.4012 5.68886 27.5 5.9375 27.5C6.18614 27.5 6.4246 27.4012 6.60041 27.2254C6.77623 27.0496 6.875 26.8111 6.875 26.5625V3.4375ZM25 3.4375C25 3.18886 24.9012 2.9504 24.7254 2.77459C24.5496 2.59877 24.3111 2.5 24.0625 2.5C23.8139 2.5 23.5754 2.59877 23.3996 2.77459C23.2238 2.9504 23.125 3.18886 23.125 3.4375V26.5625C23.125 26.8111 23.2238 27.0496 23.3996 27.2254C23.5754 27.4012 23.8139 27.5 24.0625 27.5C24.3111 27.5 24.5496 27.4012 24.7254 27.2254C24.9012 27.0496 25 26.8111 25 26.5625V3.4375ZM15.9375 3.4375C15.9375 3.18886 15.8387 2.9504 15.6629 2.77459C15.4871 2.59877 15.2486 2.5 15 2.5C14.7514 2.5 14.5129 2.59877 14.3371 2.77459C14.1613 2.9504 14.0625 3.18886 14.0625 3.4375V7.8125C14.0625 8.06114 14.1613 8.2996 14.3371 8.47541C14.5129 8.65123 14.7514 8.75 15 8.75C15.2486 8.75 15.4871 8.65123 15.6629 8.47541C15.8387 8.2996 15.9375 8.06114 15.9375 7.8125V3.4375ZM14.0625 17.1875C14.0625 17.4361 14.1613 17.6746 14.3371 17.8504C14.5129 18.0262 14.7514 18.125 15 18.125C15.2486 18.125 15.4871 18.0262 15.6629 17.8504C15.8387 17.6746 15.9375 17.4361 15.9375 17.1875V12.8125C15.9375 12.5639 15.8387 12.3254 15.6629 12.1496C15.4871 11.9738 15.2486 11.875 15 11.875C14.7514 11.875 14.5129 11.9738 14.3371 12.1496C14.1613 12.3254 14.0625 12.5639 14.0625 12.8125V17.1875ZM14.0625 22.1875C14.0625 21.9389 14.1613 21.7004 14.3371 21.5246C14.5129 21.3488 14.7514 21.25 15 21.25C15.2486 21.25 15.4871 21.3488 15.6629 21.5246C15.8387 21.7004 15.9375 21.9389 15.9375 22.1875V26.5625C15.9375 26.8111 15.8387 27.0496 15.6629 27.2254C15.4871 27.4012 15.2486 27.5 15 27.5C14.7514 27.5 14.5129 27.4012 14.3371 27.2254C14.1613 27.0496 14.0625 26.8111 14.0625 26.5625V22.1875Z" fill="#434343"/>
</svg>
