<svg width="20" height="20" viewBox="0 0 20 20" fill="none" xmlns="http://www.w3.org/2000/svg">
<path d="M6.57148 14.582H8.23815V11.4087H9.07148V9.26203C9.07148 8.91036 8.95093 8.61398 8.70982 8.37286C8.46871 8.13175 8.1726 8.01148 7.82148 8.01203H6.98815C6.63648 8.01203 6.3401 8.13231 6.09898 8.37286C5.85843 8.61398 5.73815 8.91036 5.73815 9.26203V11.4087H6.57148V14.582ZM7.40482 7.24203C7.65371 7.24203 7.8626 7.15731 8.03148 6.98786C8.20037 6.81842 8.2851 6.60925 8.28565 6.36036C8.28621 6.11148 8.20148 5.90259 8.03148 5.7337C7.86148 5.56481 7.65232 5.48009 7.40398 5.47953C7.15565 5.47898 6.94676 5.5637 6.77732 5.7337C6.60787 5.9037 6.52315 6.11259 6.52315 6.36036C6.52315 6.60981 6.60787 6.81898 6.77732 6.98786C6.94676 7.15675 7.15565 7.24148 7.40398 7.24203M11.4273 8.7487H14.0873L12.7573 6.61703L11.4273 8.7487ZM12.7573 13.3804L14.0873 11.2487H11.4273L12.7573 13.3804ZM4.68065 16.6654C4.29676 16.6654 3.97648 16.537 3.71982 16.2804C3.46315 16.0237 3.33454 15.7031 3.33398 15.3187V4.6787C3.33398 4.29481 3.4626 3.97453 3.71982 3.71786C3.97704 3.4612 4.29732 3.33259 4.68065 3.33203H15.3215C15.7048 3.33203 16.0251 3.46064 16.2823 3.71786C16.5395 3.97509 16.6679 4.29536 16.6673 4.6787V15.3195C16.6673 15.7029 16.539 16.0231 16.2823 16.2804C16.0257 16.5376 15.7051 16.6659 15.3207 16.6654H4.68065ZM4.68065 15.832H15.3215C15.4709 15.832 15.5937 15.784 15.6898 15.6879C15.7859 15.5918 15.834 15.469 15.834 15.3195V4.67786C15.834 4.52842 15.7859 4.40564 15.6898 4.30953C15.5937 4.21342 15.4709 4.16536 15.3215 4.16536H4.67982C4.53037 4.16536 4.4076 4.21342 4.31148 4.30953C4.21537 4.40564 4.16732 4.5287 4.16732 4.6787V15.3195C4.16732 15.469 4.21537 15.5918 4.31148 15.6879C4.4076 15.784 4.53065 15.832 4.68065 15.832Z" fill="#929393"/>
</svg>
