<svg width="30" height="30" viewBox="0 0 30 30" fill="none" xmlns="http://www.w3.org/2000/svg">
<path d="M23.0494 6.17437C22.8751 6.00003 22.6681 5.86177 22.4403 5.7675C22.2125 5.67323 21.9684 5.62481 21.7219 5.625H15V1.875H13.125V5.625H5.625C5.12795 5.62574 4.65147 5.82353 4.3 6.175C3.94853 6.52647 3.75074 7.00295 3.75 7.5V13.125C3.75074 13.6221 3.94853 14.0985 4.3 14.45C4.65147 14.8015 5.12795 14.9993 5.625 15H13.125V28.125H15V15H21.7228C21.9692 15.0001 22.2131 14.9516 22.4408 14.8573C22.6684 14.7631 22.8752 14.6249 23.0494 14.4506L27.1875 10.3125L23.0494 6.17437ZM21.7219 13.125H5.625V7.5H21.7238L24.5363 10.3125L21.7219 13.125Z" fill="#434343"/>
</svg>
