<svg width="16" height="16" viewBox="0 0 16 16" fill="none" xmlns="http://www.w3.org/2000/svg">
<path d="M4.01967 8.0204L5.35301 10.3337L3.66634 12.4537L1.33301 8.41373L4.01967 8.0204ZM11.333 12.0004V10.1937C11.9197 9.93373 12.333 9.35373 12.333 8.66706C12.333 8.28706 12.1997 7.93373 11.9797 7.66706L13.293 6.9004C13.9663 6.50706 14.1997 5.64706 13.8063 4.97373L12.8863 3.37373C12.6988 3.0504 12.391 2.81431 12.0301 2.71691C11.6692 2.61951 11.2845 2.66869 10.9597 2.85373L5.53967 6.0004C4.90634 6.35373 4.68634 7.16706 5.05301 7.80706L6.05301 9.5404C6.41967 10.1737 7.23968 10.3937 7.87301 10.0271L9.12634 9.30706C9.29301 9.7004 9.60634 10.0204 9.99967 10.1937V12.0004C9.99967 12.7337 10.5997 13.3337 11.333 13.3337H14.6663V12.0004H11.333Z" fill="#929393"/>
</svg>
