<svg width="30" height="30" viewBox="0 0 30 30" fill="none" xmlns="http://www.w3.org/2000/svg">
<path d="M3.75 22.5V16.25C3.75 15.88 3.85667 15.4858 4.07 15.0675C4.28333 14.6492 4.59333 14.335 5 14.125V11.25C5 10.545 5.24042 9.95208 5.72125 9.47125C6.20208 8.99042 6.795 8.75 7.5 8.75H13.125C13.5558 8.75 13.9238 8.83875 14.2288 9.01625C14.5329 9.19292 14.79 9.4375 15 9.75C15.21 9.4375 15.4671 9.19292 15.7712 9.01625C16.0762 8.83875 16.4442 8.75 16.875 8.75H22.5C23.205 8.75 23.7979 8.99042 24.2788 9.47125C24.7596 9.95208 25 10.545 25 11.25V14.125C25.4075 14.335 25.7175 14.6492 25.93 15.0675C26.1433 15.4858 26.25 15.88 26.25 16.25V22.5H25V20H5V22.5H3.75ZM15.625 13.75H23.75V11.25C23.75 10.8958 23.63 10.5992 23.39 10.36C23.15 10.1208 22.8533 10.0008 22.5 10H16.875C16.5208 10 16.2242 10.12 15.985 10.36C15.7458 10.6 15.6258 10.8967 15.625 11.25V13.75ZM6.25 13.75H14.375V11.25C14.375 10.8958 14.255 10.5992 14.015 10.36C13.775 10.1208 13.4783 10.0008 13.125 10H7.5C7.14583 10 6.84917 10.12 6.61 10.36C6.37083 10.6 6.25083 10.8967 6.25 11.25V13.75Z" fill="#434343"/>
</svg>
