<svg width="30" height="30" viewBox="0 0 30 30" fill="none" xmlns="http://www.w3.org/2000/svg">
<path d="M26.25 5.85938H3.75C3.56352 5.85938 3.38468 5.93345 3.25282 6.06532C3.12095 6.19718 3.04688 6.37602 3.04688 6.5625V23.4375C3.04688 23.624 3.12095 23.8028 3.25282 23.9347C3.38468 24.0665 3.56352 24.1406 3.75 24.1406H26.25C26.4365 24.1406 26.6153 24.0665 26.7472 23.9347C26.879 23.8028 26.9531 23.624 26.9531 23.4375V6.5625C26.9531 6.37602 26.879 6.19718 26.7472 6.06532C26.6153 5.93345 26.4365 5.85938 26.25 5.85938ZM10.0781 17.1094V12.8906H19.9219V17.1094H10.0781ZM4.45312 17.1094V12.8906H8.67188V17.1094H4.45312ZM21.3281 12.8906H25.5469V17.1094H21.3281V12.8906ZM25.5469 11.4844H15.7031V7.26562H25.5469V11.4844ZM14.2969 7.26562V11.4844H4.45312V7.26562H14.2969ZM4.45312 18.5156H14.2969V22.7344H4.45312V18.5156ZM15.7031 22.7344V18.5156H25.5469V22.7344H15.7031Z" fill="#434343"/>
</svg>
