<svg width="16" height="16" viewBox="0 0 16 16" fill="none" xmlns="http://www.w3.org/2000/svg">
<path d="M14.6673 6.66797H12.0007V4.66797C12.0007 3.5613 11.1073 2.66797 10.0007 2.66797C8.89398 2.66797 8.00065 3.5613 8.00065 4.66797H9.33398C9.33398 4.3013 9.63398 4.0013 10.0007 4.0013C10.3673 4.0013 10.6673 4.3013 10.6673 4.66797V6.66797H5.33398C6.06732 6.66797 6.66732 6.06797 6.66732 5.33464V2.66797H2.66732V5.33464C2.66732 6.06797 3.26732 6.66797 4.00065 6.66797H1.33398V8.0013H2.66732V13.3346H13.334V8.0013H14.6673V6.66797ZM4.00065 4.0013H5.33398V5.33464H4.00065V4.0013ZM4.00065 12.0013V8.0013H7.33398V12.0013H4.00065ZM12.0007 12.0013H8.66732V8.0013H12.0007V12.0013Z" fill="#929393"/>
</svg>
