<svg width="16" height="16" viewBox="0 0 16 16" fill="none" xmlns="http://www.w3.org/2000/svg">
<path d="M14.6663 14V6.40667C14.6663 5.52533 14.6663 5.084 14.437 4.74267C14.2077 4.40133 13.8017 4.23733 12.9903 3.90933L8.99034 2.296C8.50101 2.09867 8.25701 2 7.99967 2C7.74234 2 7.49834 2.09867 7.00901 2.296L3.00901 3.90933C2.19767 4.23733 1.79167 4.40133 1.56234 4.74267C1.33301 5.084 1.33301 5.52533 1.33301 6.40667V14M10.6663 12.6667V14M5.33301 12.6667V14" stroke="#929393" stroke-width="1.2" stroke-linecap="round" stroke-linejoin="round"/>
<path d="M5 9.33464L5.162 8.68797C5.404 7.71797 5.52533 7.23264 5.88733 6.95064C6.24867 6.66797 6.74867 6.66797 7.74867 6.66797H8.25133C9.25133 6.66797 9.75133 6.66797 10.1127 6.95064C10.4747 7.23264 10.596 7.7173 10.838 8.68797L11 9.33464M5.66667 10.9946V11.0013M10.3333 10.9946V11.0013M11.3333 9.33464H4.66667C4.48986 9.33464 4.32029 9.40487 4.19526 9.5299C4.07024 9.65492 4 9.82449 4 10.0013V12.0013C4 12.1781 4.07024 12.3477 4.19526 12.4727C4.32029 12.5977 4.48986 12.668 4.66667 12.668H11.3333C11.5101 12.668 11.6797 12.5977 11.8047 12.4727C11.9298 12.3477 12 12.1781 12 12.0013V10.0013C12 9.82449 11.9298 9.65492 11.8047 9.5299C11.6797 9.40487 11.5101 9.33464 11.3333 9.33464Z" stroke="#929393" stroke-width="1.2" stroke-linecap="round" stroke-linejoin="round"/>
</svg>
