<svg width="26" height="26" viewBox="0 0 26 26" fill="none" xmlns="http://www.w3.org/2000/svg">
<g clip-path="url(#clip0_1345_551)">
<path d="M22.75 12.9723H22.7241L20.6714 8.35352C20.4796 7.92283 20.1672 7.55693 19.7718 7.30008C19.3765 7.04324 18.9152 6.90644 18.4438 6.90625H7.55625C7.08484 6.90648 6.62359 7.04329 6.22829 7.30014C5.83299 7.55698 5.52058 7.92286 5.32883 8.35352L3.27595 12.9723H3.25C2.81917 12.9728 2.40613 13.1441 2.10149 13.4488C1.79684 13.7534 1.62548 14.1664 1.625 14.5973V20.2848C1.62548 20.7156 1.79684 21.1286 2.10149 21.4333C2.40613 21.7379 2.81917 21.9093 3.25 21.9098V23.9688C3.2504 24.2919 3.37894 24.6016 3.60741 24.8301C3.83588 25.0586 4.14564 25.1871 4.46875 25.1875H7.3125C7.63561 25.1871 7.94537 25.0586 8.17384 24.8301C8.40231 24.6016 8.53085 24.2919 8.53125 23.9688V21.9098H17.4688V23.9688C17.4692 24.2919 17.5977 24.6016 17.8262 24.8301C18.0546 25.0586 18.3644 25.1871 18.6875 25.1875H21.5312C21.8544 25.1871 22.1641 25.0586 22.3926 24.8301C22.6211 24.6016 22.7496 24.2919 22.75 23.9688V21.9098C23.1808 21.9093 23.5939 21.7379 23.8985 21.4333C24.2032 21.1286 24.3745 20.7156 24.375 20.2848V14.5973C24.3745 14.1664 24.2032 13.7534 23.8985 13.4488C23.5939 13.1441 23.1808 12.9728 22.75 12.9723ZM6.81357 9.01367C6.87749 8.87008 6.98165 8.74808 7.11346 8.66246C7.24527 8.57684 7.39907 8.53127 7.55625 8.53125H18.4438C18.6009 8.53131 18.7547 8.5769 18.8864 8.66252C19.0182 8.74814 19.1223 8.87011 19.1862 9.01367L20.9456 12.9722H5.05421L6.81357 9.01367ZM6.90625 23.5625H4.875V21.9098H6.90625V23.5625ZM21.125 23.5625H19.0938V21.9098H21.125V23.5625ZM22.75 20.2848H3.25V14.5973H22.75V20.2848Z" fill="#434343"/>
<path d="M4.875 16.6568H8.9375V18.2818H4.875V16.6568ZM17.0625 16.6568H21.125V18.2818H17.0625V16.6568ZM13 0.75L0.8125 5.64343V7.39452L13 2.50114L25.1875 7.39452V5.64343L13 0.75Z" fill="#434343"/>
</g>
<defs>
<clipPath id="clip0_1345_551">
<rect width="26" height="26" fill="white"/>
</clipPath>
</defs>
</svg>
