<svg width="16" height="16" viewBox="0 0 16 16" fill="none" xmlns="http://www.w3.org/2000/svg">
<path d="M8 5.5C7.54037 5.5 7.08525 5.59053 6.66061 5.76642C6.23597 5.94231 5.85013 6.20012 5.52513 6.52513C5.20012 6.85013 4.94231 7.23597 4.76642 7.66061C4.59053 8.08525 4.5 8.54037 4.5 9C4.5 9.45963 4.59053 9.91475 4.76642 10.3394C4.94231 10.764 5.20012 11.1499 5.52513 11.4749C5.85013 11.7999 6.23597 12.0577 6.66061 12.2336C7.08525 12.4095 7.54037 12.5 8 12.5C8.92826 12.5 9.8185 12.1313 10.4749 11.4749C11.1313 10.8185 11.5 9.92826 11.5 9C11.5 8.07174 11.1313 7.1815 10.4749 6.52513C9.8185 5.86875 8.92826 5.5 8 5.5ZM5.5 9C5.49965 8.35245 5.75058 7.73003 6.19995 7.26377C6.64932 6.79752 7.26207 6.52383 7.90919 6.50031C8.55632 6.47678 9.18732 6.70528 9.66935 7.13767C10.1514 7.57007 10.4468 8.17263 10.4935 8.8185C10.3916 8.90143 10.2784 8.9696 10.1575 9.021C9.8105 9.171 9.238 9.26 8.2505 9.013C7.1485 8.738 6.4055 8.9015 5.8865 9.2235C5.7565 9.3045 5.644 9.393 5.5465 9.4815C5.51547 9.32288 5.4999 9.16163 5.5 9ZM5.75 4C5.75 4.19891 5.67098 4.38968 5.53033 4.53033C5.38968 4.67098 5.19891 4.75 5 4.75C4.80109 4.75 4.61032 4.67098 4.46967 4.53033C4.32902 4.38968 4.25 4.19891 4.25 4C4.25 3.80109 4.32902 3.61032 4.46967 3.46967C4.61032 3.32902 4.80109 3.25 5 3.25C5.19891 3.25 5.38968 3.32902 5.53033 3.46967C5.67098 3.61032 5.75 3.80109 5.75 4ZM8.5 3.5C8.36739 3.5 8.24021 3.55268 8.14645 3.64645C8.05268 3.74021 8 3.86739 8 4C8 4.13261 8.05268 4.25979 8.14645 4.35355C8.24021 4.44732 8.36739 4.5 8.5 4.5H11C11.1326 4.5 11.2598 4.44732 11.3536 4.35355C11.4473 4.25979 11.5 4.13261 11.5 4C11.5 3.86739 11.4473 3.74021 11.3536 3.64645C11.2598 3.55268 11.1326 3.5 11 3.5H8.5ZM3.75 1.5C3.15326 1.5 2.58097 1.73705 2.15901 2.15901C1.73705 2.58097 1.5 3.15326 1.5 3.75V12.25C1.5 12.8467 1.73705 13.419 2.15901 13.841C2.58097 14.2629 3.15326 14.5 3.75 14.5H12.25C12.8467 14.5 13.419 14.2629 13.841 13.841C14.2629 13.419 14.5 12.8467 14.5 12.25V3.75C14.5 3.15326 14.2629 2.58097 13.841 2.15901C13.419 1.73705 12.8467 1.5 12.25 1.5H3.75ZM2.5 3.75C2.5 3.41848 2.6317 3.10054 2.86612 2.86612C3.10054 2.6317 3.41848 2.5 3.75 2.5H12.25C12.5815 2.5 12.8995 2.6317 13.1339 2.86612C13.3683 3.10054 13.5 3.41848 13.5 3.75V12.25C13.5 12.5815 13.3683 12.8995 13.1339 13.1339C12.8995 13.3683 12.5815 13.5 12.25 13.5H3.75C3.41848 13.5 3.10054 13.3683 2.86612 13.1339C2.6317 12.8995 2.5 12.5815 2.5 12.25V3.75Z" fill="#929393"/>
</svg>
