<svg width="18" height="18" viewBox="0 0 18 18" fill="none" xmlns="http://www.w3.org/2000/svg">
<path d="M9 15C8.55 15 8.19375 15.125 7.93125 15.375C7.66875 15.625 7.1875 15.75 6.4875 15.75C5.7875 15.75 5.30625 15.625 5.04375 15.375C4.78125 15.125 4.425 15 3.975 15C3.6125 15 3.3375 15.0845 3.15 15.2535C2.9625 15.4225 2.66875 15.5568 2.26875 15.6563C2.06875 15.7063 1.89075 15.6625 1.73475 15.525C1.57875 15.3875 1.5005 15.2125 1.5 15C1.4995 14.7875 1.5745 14.6033 1.725 14.4473C1.8755 14.2913 2.04425 14.163 2.23125 14.0625C2.44375 13.95 2.66875 13.828 2.90625 13.6965C3.14375 13.565 3.5 13.4995 3.975 13.5C4.675 13.5 5.15625 13.625 5.41875 13.875C5.68125 14.125 6.0375 14.25 6.4875 14.25C6.9375 14.25 7.29375 14.125 7.55625 13.875C7.81875 13.625 8.3 13.5 9 13.5C9.7 13.5 10.1813 13.625 10.4438 13.875C10.7063 14.125 11.0625 14.25 11.5125 14.25C11.9625 14.25 12.3188 14.125 12.5813 13.875C12.8438 13.625 13.325 13.5 14.025 13.5C14.5 13.5 14.8563 13.5658 15.0938 13.6973C15.3313 13.8288 15.5563 13.9505 15.7688 14.0625C15.9563 14.1625 16.125 14.2908 16.275 14.4473C16.425 14.6038 16.5 14.788 16.5 15C16.5 15.212 16.422 15.387 16.266 15.525C16.11 15.663 15.9318 15.7068 15.7313 15.6563C15.3313 15.5563 15.0375 15.422 14.85 15.2535C14.6625 15.085 14.3875 15.0005 14.025 15C13.575 15 13.2188 15.125 12.9563 15.375C12.6938 15.625 12.2125 15.75 11.5125 15.75C10.8125 15.75 10.3313 15.625 10.0688 15.375C9.80625 15.125 9.45 15 9 15ZM9 11.625C8.525 11.625 8.17175 11.75 7.94025 12C7.70875 12.25 7.2245 12.375 6.4875 12.375C5.7505 12.375 5.25975 12.25 5.01525 12C4.77075 11.75 4.424 11.625 3.975 11.625C3.6125 11.625 3.3375 11.7095 3.15 11.8785C2.9625 12.0475 2.66875 12.1818 2.26875 12.2813C2.06875 12.3313 1.89075 12.2875 1.73475 12.15C1.57875 12.0125 1.5005 11.8375 1.5 11.625C1.4995 11.4125 1.5745 11.2283 1.725 11.0723C1.8755 10.9163 2.04425 10.788 2.23125 10.6875C2.44375 10.575 2.66875 10.453 2.90625 10.3215C3.14375 10.19 3.5 10.1245 3.975 10.125C4.675 10.125 5.1595 10.25 5.4285 10.5C5.6975 10.75 6.0505 10.875 6.4875 10.875C6.9375 10.875 7.29375 10.75 7.55625 10.5C7.81875 10.25 8.3 10.125 9 10.125C9.7 10.125 10.1813 10.25 10.4438 10.5C10.7063 10.75 11.0625 10.875 11.5125 10.875C11.9625 10.875 12.3188 10.75 12.5813 10.5C12.8438 10.25 13.325 10.125 14.025 10.125C14.5 10.125 14.8563 10.1908 15.0938 10.3223C15.3313 10.4538 15.5563 10.5755 15.7688 10.6875C15.9563 10.7875 16.125 10.9158 16.275 11.0723C16.425 11.2288 16.5 11.413 16.5 11.625C16.5 11.837 16.422 12.012 16.266 12.15C16.11 12.288 15.9318 12.3318 15.7313 12.2813C15.3313 12.1813 15.0375 12.047 14.85 11.8785C14.6625 11.71 14.3875 11.6255 14.025 11.625C13.575 11.625 13.228 11.75 12.984 12C12.74 12.25 12.2495 12.375 11.5125 12.375C10.8 12.375 10.3158 12.25 10.0598 12C9.80375 11.75 9.4505 11.625 9 11.625ZM5.175 8.55L7.66875 6.05625L6.91875 5.30625C6.60625 4.99375 6.2845 4.74675 5.9535 4.56525C5.6225 4.38375 5.24425 4.262 4.81875 4.2C4.56875 4.15 4.35325 4.03125 4.17225 3.84375C3.99125 3.65625 3.9005 3.4375 3.9 3.1875C3.9 2.925 3.99375 2.703 4.18125 2.5215C4.36875 2.34 4.5875 2.262 4.8375 2.2875C5.5125 2.35 6.09375 2.49075 6.58125 2.70975C7.06875 2.92875 7.55 3.2755 8.025 3.75L12.825 8.55C12.6125 8.6875 12.4063 8.797 12.2063 8.8785C12.0063 8.96 11.775 9.0005 11.5125 9C11.0625 9 10.7063 8.875 10.4438 8.625C10.1813 8.375 9.7 8.25 9 8.25C8.3 8.25 7.81875 8.375 7.55625 8.625C7.29375 8.875 6.9375 9 6.4875 9C6.225 9 5.99375 8.9595 5.79375 8.8785C5.59375 8.7975 5.3875 8.688 5.175 8.55ZM12.525 2.25C13.05 2.25 13.4938 2.4345 13.8563 2.8035C14.2188 3.1725 14.4 3.613 14.4 4.125C14.4 4.65 14.2188 5.09375 13.8563 5.45625C13.4938 5.81875 13.05 6 12.525 6C12 6 11.5563 5.81875 11.1938 5.45625C10.8313 5.09375 10.65 4.65 10.65 4.125C10.65 3.6125 10.8313 3.17175 11.1938 2.80275C11.5563 2.43375 12 2.2495 12.525 2.25Z" fill="#929393"/>
</svg>
