<svg width="26" height="26" viewBox="0 0 26 26" fill="none" xmlns="http://www.w3.org/2000/svg">
<path d="M22.75 9.7487V7.58203C22.75 5.79453 21.2875 4.33203 19.5 4.33203H15.1667C14.3325 4.33203 13.5742 4.65703 13 5.17703C12.4258 4.65703 11.6675 4.33203 10.8333 4.33203H6.5C4.7125 4.33203 3.25 5.79453 3.25 7.58203V9.7487C1.4625 9.7487 0 11.2112 0 12.9987V18.4154C0 20.2029 1.4625 21.6654 3.25 21.6654V23.832H5.41667V21.6654H20.5833V23.832H22.75V21.6654C24.5375 21.6654 26 20.2029 26 18.4154V12.9987C26 11.2112 24.5375 9.7487 22.75 9.7487ZM15.1667 6.4987H19.5C20.0958 6.4987 20.5833 6.9862 20.5833 7.58203V10.5937C19.9225 11.1895 19.5 12.0454 19.5 12.9987V15.1654H14.0833V7.58203C14.0833 6.9862 14.5708 6.4987 15.1667 6.4987ZM5.41667 7.58203C5.41667 6.9862 5.90417 6.4987 6.5 6.4987H10.8333C11.4292 6.4987 11.9167 6.9862 11.9167 7.58203V15.1654H6.5V12.9987C6.5 12.0454 6.0775 11.1895 5.41667 10.5937V7.58203ZM23.8333 18.4154C23.8333 19.0112 23.3458 19.4987 22.75 19.4987H3.25C2.65417 19.4987 2.16667 19.0112 2.16667 18.4154V12.9987C2.16667 12.4029 2.65417 11.9154 3.25 11.9154C3.84583 11.9154 4.33333 12.4029 4.33333 12.9987V17.332H21.6667V12.9987C21.6667 12.4029 22.1542 11.9154 22.75 11.9154C23.3458 11.9154 23.8333 12.4029 23.8333 12.9987V18.4154Z" fill="#434343"/>
</svg>
