<svg width="26" height="26" viewBox="0 0 26 26" fill="none" xmlns="http://www.w3.org/2000/svg">
<path d="M9.75065 10.8333V8.66667C9.75065 8.09203 9.97892 7.54093 10.3853 7.1346C10.7916 6.72827 11.3427 6.5 11.9173 6.5H18.4173C18.992 6.5 19.5431 6.72827 19.9494 7.1346C20.3557 7.54093 20.584 8.09203 20.584 8.66667V10.8333M7.58398 10.8333H22.7507" stroke="#434343" stroke-width="2" stroke-linecap="round" stroke-linejoin="round"/>
<path d="M3.25 23.8346V4.33464C3.25 3.76 3.47827 3.2089 3.8846 2.80257C4.29093 2.39624 4.84203 2.16797 5.41667 2.16797H13C13.5746 2.16797 14.1257 2.39624 14.5321 2.80257C14.9384 3.2089 15.1667 3.76 15.1667 4.33464V6.5013M10.8333 15.168H10.8442M15.1667 15.168H15.1775M19.5 15.168H19.5108M9.75 19.5013H9.76083M15.1667 19.5013H15.1775M20.5833 19.5013H20.5942M8.66667 23.8346H8.6775M15.1667 23.8346H15.1775M21.6667 23.8346H21.6775" stroke="#434343" stroke-width="2" stroke-linecap="round" stroke-linejoin="round"/>
</svg>
