<svg width="16" height="16" viewBox="0 0 16 16" fill="none" xmlns="http://www.w3.org/2000/svg">
<path d="M8 14.0013C7.53333 14.0013 7.13889 13.8402 6.81667 13.518C6.49444 13.1957 6.33333 12.8013 6.33333 12.3346C6.33333 11.868 6.49444 11.4735 6.81667 11.1513C7.13889 10.8291 7.53333 10.668 8 10.668C8.46667 10.668 8.86111 10.8291 9.18333 11.1513C9.50556 11.4735 9.66667 11.868 9.66667 12.3346C9.66667 12.8013 9.50556 13.1957 9.18333 13.518C8.86111 13.8402 8.46667 14.0013 8 14.0013ZM4.23333 10.2346L2.83333 8.8013C3.48889 8.14575 4.25844 7.62641 5.142 7.2433C6.02556 6.86019 6.97822 6.66841 8 6.66797C9.02178 6.66752 9.97467 6.86197 10.8587 7.2513C11.7427 7.64064 12.512 8.16841 13.1667 8.83464L11.7667 10.2346C11.2778 9.74575 10.7111 9.36241 10.0667 9.08464C9.42222 8.80686 8.73333 8.66797 8 8.66797C7.26667 8.66797 6.57778 8.80686 5.93333 9.08464C5.28889 9.36241 4.72222 9.74575 4.23333 10.2346ZM1.4 7.4013L0 6.0013C1.02222 4.95686 2.21667 4.14019 3.58333 3.5513C4.95 2.96241 6.42222 2.66797 8 2.66797C9.57778 2.66797 11.05 2.96241 12.4167 3.5513C13.7833 4.14019 14.9778 4.95686 16 6.0013L14.6 7.4013C13.7444 6.54575 12.7529 5.87641 11.6253 5.3933C10.4978 4.91019 9.28933 4.66841 8 4.66797C6.71067 4.66752 5.50244 4.9093 4.37533 5.3933C3.24822 5.8773 2.25644 6.54664 1.4 7.4013Z" fill="#929393"/>
</svg>
