<svg width="1414" height="172" viewBox="0 0 1414 172" fill="none" xmlns="http://www.w3.org/2000/svg">
<path d="M157.231 0C191.875 7.24976e-05 222.226 9.14475 248.283 27.4336C274.34 45.7224 292.55 71.0219 302.914 103.332H231.405C224.299 88.0914 214.231 76.6614 201.202 69.041C188.47 61.4207 173.665 57.6104 156.787 57.6104C138.725 57.6104 122.587 62.0296 108.374 70.8691C94.4572 79.4039 83.5016 91.597 75.5068 107.447C67.8082 123.298 63.958 141.891 63.958 163.229C63.958 166.201 64.0376 169.125 64.1914 172H0.180664C0.0601278 169.106 0 166.182 0 163.229C1.32398e-05 131.833 6.81 103.79 20.4307 79.0996C34.3475 54.1047 53.1506 34.7489 76.8389 21.0322C100.823 7.01072 127.621 0 157.231 0ZM413.766 172H351.584V4.11523H413.766V172ZM613.777 0C648.717 0 679.068 8.83949 704.829 26.5186C730.59 43.893 748.357 68.4311 758.128 100.132H686.619C679.513 86.72 669.741 76.5088 657.305 69.498C644.868 62.4873 630.359 58.9814 613.777 58.9814C595.419 58.9815 579.134 63.2495 564.921 71.7842C550.708 80.319 539.604 92.5119 531.609 108.362C523.615 124.213 519.617 142.501 519.617 163.229C519.617 166.206 519.697 169.13 519.853 172H455.839C455.718 169.106 455.658 166.182 455.658 163.229C455.658 131.833 462.469 103.79 476.09 79.0996C490.007 54.1048 508.957 34.7489 532.941 21.0322C557.222 7.01078 584.167 5.78079e-05 613.777 0ZM765.679 172H597.788V145.854H765.679V172ZM1030.75 172H967.279L935.604 77.7275L903.927 172H840.905L899.626 3.6582H972.023L1030.75 172ZM1312.17 55.7812H1182.92V137.624H1281.96V172H1120.74V4.11523H1312.17V55.7812ZM1414 172H1351.82V4.11523H1414V172Z" fill="white"/>
</svg>
