<svg width="21" height="21" viewBox="0 0 21 21" fill="none" xmlns="http://www.w3.org/2000/svg">
<path d="M16.1169 16.1299L4.88712 4.901C5.33454 4.383 5.84612 3.92917 6.42187 3.5395C6.99762 3.14983 7.62762 2.83979 8.31187 2.60938C8.25121 3.97437 8.44662 5.30117 8.89812 6.58975C9.34846 7.87833 10.0578 9.0065 11.0261 9.97425C11.9945 10.9426 13.1086 11.6659 14.3686 12.1443C15.6286 12.6238 16.9414 12.8332 18.307 12.7725C18.0795 13.4445 17.7843 14.0628 17.4215 14.6275C17.0587 15.1922 16.6244 15.693 16.1169 16.1299ZM16.1282 19.8495L13.799 17.5211C13.3481 17.6885 12.8835 17.8169 12.4051 17.9061C11.9268 17.9948 11.433 18.0391 10.9237 18.0391C9.82183 18.0391 8.78817 17.8312 7.82275 17.4153C6.85792 16.9988 6.01442 16.4297 5.29225 15.7081C4.57008 14.9865 4.00104 14.143 3.58512 13.1776C3.16921 12.2122 2.96125 11.1785 2.96125 10.0766C2.96125 9.57846 3.0085 9.09021 3.103 8.61187C3.19808 8.13354 3.32933 7.66892 3.49675 7.218L1.17188 4.894L1.79575 4.27013L16.7521 19.2247L16.1282 19.8495Z" fill="#929393"/>
</svg>
