<svg width="16" height="16" viewBox="0 0 16 16" fill="none" xmlns="http://www.w3.org/2000/svg">
<path d="M14.0007 3.9987H11.334V1.9987C11.334 1.82189 11.2637 1.65232 11.1387 1.52729C11.0137 1.40227 10.8441 1.33203 10.6673 1.33203H5.33398C5.15717 1.33203 4.9876 1.40227 4.86258 1.52729C4.73756 1.65232 4.66732 1.82189 4.66732 1.9987V6.66536H2.00065C1.82384 6.66536 1.65427 6.7356 1.52925 6.86063C1.40422 6.98565 1.33398 7.15522 1.33398 7.33203V12.6654C1.33398 12.8422 1.40422 13.0117 1.52925 13.1368C1.65427 13.2618 1.82384 13.332 2.00065 13.332H14.0007C14.1775 13.332 14.347 13.2618 14.4721 13.1368C14.5971 13.0117 14.6673 12.8422 14.6673 12.6654V4.66536C14.6673 4.48855 14.5971 4.31898 14.4721 4.19396C14.347 4.06894 14.1775 3.9987 14.0007 3.9987ZM4.00065 11.9987H2.66732V10.6654H4.00065V11.9987ZM4.00065 9.33203H2.66732V7.9987H4.00065V9.33203ZM7.33398 11.9987H6.00065V10.6654H7.33398V11.9987ZM7.33398 9.33203H6.00065V7.9987H7.33398V9.33203ZM7.33398 6.66536H6.00065V5.33203H7.33398V6.66536ZM7.33398 3.9987H6.00065V2.66536H7.33398V3.9987ZM10.0007 11.9987H8.66732V10.6654H10.0007V11.9987ZM10.0007 9.33203H8.66732V7.9987H10.0007V9.33203ZM10.0007 6.66536H8.66732V5.33203H10.0007V6.66536ZM10.0007 3.9987H8.66732V2.66536H10.0007V3.9987ZM13.334 11.9987H12.0007V10.6654H13.334V11.9987ZM13.334 9.33203H12.0007V7.9987H13.334V9.33203ZM13.334 6.66536H12.0007V5.33203H13.334V6.66536Z" fill="#929393"/>
</svg>
