<svg width="18" height="18" viewBox="0 0 18 18" fill="none" xmlns="http://www.w3.org/2000/svg">
<path d="M3.885 4.0875L2.55 3.4125L3.495 1.5H9.8475L10.8 3.4125L9.465 4.08L8.925 3H4.425L3.885 4.0875ZM11.625 6H8.25L7.65 3.75H5.7L5.1075 6H1.71L0.75 7.9125L2.0925 8.58L2.625 7.5H10.71L11.25 8.5875L12.5925 7.92L11.625 6ZM11.0025 16.5H9.45L9.27 15.825L6.675 11.925L4.0725 15.825L3.9 16.5H2.3475L4.5 8.25H6.0675L5.7975 9.2625L6.675 10.575L7.545 9.2625L7.2825 8.25H8.835L11.0025 16.5ZM6.225 11.25L5.55 10.2375L4.665 13.5975L6.225 11.25ZM8.685 13.59L7.8 10.23L7.125 11.25L8.685 13.59ZM17.25 12L14.25 9V11.25H11.25V12.75H14.25V15L17.25 12Z" fill="#929393"/>
</svg>
