<?xml version="1.0" standalone="no"?>
<!DOCTYPE svg PUBLIC "-//W3C//DTD SVG 20010904//EN"
 "http://www.w3.org/TR/2001/REC-SVG-20010904/DTD/svg10.dtd">
<svg version="1.0" xmlns="http://www.w3.org/2000/svg"
 width="612.000000pt" height="611.000000pt" viewBox="0 0 612.000000 611.000000"
 preserveAspectRatio="xMidYMid meet">

<g transform="translate(0.000000,611.000000) scale(0.100000,-0.100000)"
fill="#000000" stroke="none">
<path d="M2905 6100 c-248 -39 -399 -187 -412 -404 -9 -136 27 -308 181 -876
124 -453 199 -842 242 -1253 16 -150 14 -187 -11 -169 -17 12 -146 170 -247
302 -177 232 -364 518 -563 860 -337 581 -377 643 -471 738 -42 42 -85 73
-131 95 -63 30 -76 32 -173 32 -104 0 -106 -1 -194 -44 -76 -36 -107 -60 -196
-147 -118 -115 -169 -183 -209 -276 -22 -54 -26 -78 -26 -164 0 -96 2 -103 37
-176 72 -144 172 -218 716 -530 509 -291 925 -574 1232 -839 50 -42 68 -65 61
-72 -21 -21 -435 30 -796 98 -215 41 -378 79 -687 161 -117 31 -279 73 -359
95 -350 91 -504 101 -631 42 -120 -56 -206 -169 -242 -314 -21 -85 -22 -326
-1 -424 51 -242 236 -382 475 -361 110 10 287 48 520 111 711 194 1209 293
1607 321 80 6 93 5 93 -9 0 -31 -393 -332 -680 -522 -158 -104 -478 -298 -650
-395 -167 -94 -419 -250 -480 -296 -216 -164 -274 -366 -167 -579 42 -84 102
-159 202 -253 182 -170 373 -221 542 -147 133 59 229 177 438 540 237 411 283
488 369 625 99 159 212 324 320 470 75 102 253 326 281 354 32 32 38 5 26
-126 -38 -400 -126 -848 -275 -1389 -140 -510 -173 -698 -145 -831 47 -224
247 -349 557 -348 266 1 436 79 519 238 85 161 74 272 -91 894 -147 554 -212
859 -261 1222 -28 208 -36 351 -19 351 25 0 254 -293 431 -550 161 -234 243
-365 413 -660 259 -449 354 -599 433 -684 86 -91 225 -148 339 -138 136 11
243 70 383 211 107 108 161 181 196 267 18 43 23 74 23 154 1 97 0 104 -37
177 -70 143 -176 222 -730 542 -523 303 -783 475 -1112 740 -137 111 -145 118
-145 133 0 18 53 17 254 -7 445 -53 698 -106 1391 -290 554 -148 674 -159 827
-78 72 38 151 121 184 192 44 97 56 183 51 366 -5 179 -14 218 -68 321 -65
121 -192 200 -336 207 -45 3 -119 -1 -164 -8 -89 -12 -394 -86 -599 -144 -497
-140 -953 -230 -1371 -272 -163 -17 -207 -15 -194 6 12 19 227 194 365 296
275 205 483 340 885 573 507 295 607 361 693 455 64 69 104 162 110 251 10
163 -42 269 -218 446 -112 114 -134 131 -215 170 -89 43 -91 44 -195 44 -98 0
-110 -2 -173 -32 -130 -62 -240 -203 -467 -598 -250 -435 -315 -543 -443 -735
-215 -322 -498 -683 -519 -662 -11 11 12 252 43 462 48 316 143 737 289 1275
88 325 116 520 90 633 -35 148 -142 256 -308 309 -62 20 -103 25 -212 28 -74
2 -162 0 -195 -5z"/>
</g>
</svg>
