<svg width="180" height="180" viewBox="0 0 180 180" fill="none" xmlns="http://www.w3.org/2000/svg">
<rect width="180" height="180" fill="white"/>
<path d="M45.4545 126.073C45.4545 127.153 44.612 128.029 43.5727 128.029H36.8818C35.8425 128.029 35 127.153 35 126.073V79.132C35 78.3598 35.4373 77.6599 36.116 77.3456L42.8069 74.2477C44.0515 73.6714 45.4545 74.6181 45.4545 76.0341V126.073ZM61.1364 126.073C61.1364 127.153 60.2938 128.029 59.2545 128.029H52.5636C51.5243 128.029 50.6818 127.153 50.6818 126.073V71.8714C50.6818 71.0991 51.1191 70.3991 51.7979 70.0848L58.4889 66.9876C59.7335 66.4115 61.1364 67.3582 61.1364 68.7741V126.073ZM76.8182 126.073C76.8182 127.153 75.9756 128.029 74.9364 128.029H68.2455C67.2062 128.029 66.3636 127.153 66.3636 126.073V64.6117C66.3636 63.8394 66.8009 63.1393 67.4798 62.8251L74.1707 59.7278C75.4153 59.1517 76.8182 60.0984 76.8182 61.5144V126.073ZM148.883 77.3319C149.563 77.6461 150 78.3461 150 79.1185V93.4532C150 94.5333 149.157 95.4089 148.118 95.4089H115.291C114.252 95.4089 113.409 94.5333 113.409 93.4532V80.3284C113.409 79.2483 112.567 78.3726 111.527 78.3726H104.836C103.797 78.3726 102.955 79.2483 102.955 80.3284V126.073C102.955 127.153 102.112 128.029 101.073 128.029H83.9273C82.888 128.029 82.0455 127.153 82.0455 126.073V57.3519C82.0455 56.5796 82.4828 55.8796 83.1616 55.5654L91.7345 51.5969C92.2218 51.3714 92.7783 51.3713 93.2656 51.5968L148.883 77.3319ZM148.118 106.274C149.157 106.274 150 107.15 150 108.23V126.073C150 127.153 149.157 128.029 148.118 128.029H115.291C114.252 128.029 113.409 127.153 113.409 126.073V108.23C113.409 107.15 114.252 106.274 115.291 106.274H148.118Z" fill="#F5751D"/>
</svg>
