<svg width="115" height="78" viewBox="0 0 115 78" fill="none" xmlns="http://www.w3.org/2000/svg">
<path d="M10.4545 75.0732C10.4545 76.1533 9.61202 77.029 8.57273 77.029H1.88182C0.842519 77.029 0 76.1533 0 75.0732V28.132C0 27.3598 0.437257 26.6599 1.11601 26.3456L7.80692 23.2477C9.05151 22.6714 10.4545 23.6181 10.4545 25.0341V75.0732ZM26.1364 75.0732C26.1364 76.1533 25.2938 77.029 24.2545 77.029H17.5636C16.5243 77.029 15.6818 76.1533 15.6818 75.0732V20.8714C15.6818 20.0991 16.1191 19.3991 16.7979 19.0848L23.4889 15.9876C24.7335 15.4115 26.1364 16.3582 26.1364 17.7741V75.0732ZM41.8182 75.0732C41.8182 76.1533 40.9756 77.029 39.9364 77.029H33.2455C32.2062 77.029 31.3636 76.1533 31.3636 75.0732V13.6117C31.3636 12.8394 31.8009 12.1393 32.4798 11.8251L39.1707 8.72784C40.4153 8.15172 41.8182 9.09842 41.8182 10.5144V75.0732ZM113.883 26.3319C114.563 26.6461 115 27.3461 115 28.1185V42.4532C115 43.5333 114.157 44.4089 113.118 44.4089H80.2909C79.2516 44.4089 78.4091 43.5333 78.4091 42.4532V29.3284C78.4091 28.2483 77.5666 27.3726 76.5273 27.3726H69.8364C68.7971 27.3726 67.9545 28.2483 67.9545 29.3284V75.0732C67.9545 76.1533 67.112 77.029 66.0727 77.029H48.9273C47.888 77.029 47.0455 76.1533 47.0455 75.0732V6.3519C47.0455 5.57959 47.4828 4.8796 48.1616 4.56537L56.7345 0.596937C57.2218 0.371377 57.7783 0.371332 58.2656 0.596813L113.883 26.3319ZM113.118 55.2741C114.157 55.2741 115 56.1498 115 57.2299V75.0732C115 76.1533 114.157 77.029 113.118 77.029H80.2909C79.2516 77.029 78.4091 76.1533 78.4091 75.0732V57.2299C78.4091 56.1498 79.2516 55.2741 80.2909 55.2741H113.118Z" fill="white"/>
</svg>
