<svg width="390" height="71" viewBox="0 0 390 71" fill="none" xmlns="http://www.w3.org/2000/svg">
<path d="M140 42.8401C140 37.4469 141.259 32.6297 143.777 28.3884C146.35 24.0948 149.826 20.7699 154.205 18.4137C158.639 16.0051 163.593 14.8008 169.067 14.8008C175.472 14.8008 181.083 16.3716 185.9 19.5133C190.718 22.6549 194.084 27.0009 196 32.5511H182.78C181.466 29.9331 179.605 27.9696 177.196 26.6605C174.843 25.3515 172.106 24.697 168.985 24.697C165.646 24.697 162.663 25.4562 160.035 26.9747C157.462 28.4408 155.437 30.5352 153.959 33.258C152.536 35.9808 151.824 39.1748 151.824 42.8401C151.824 46.453 152.536 49.647 153.959 52.4221C155.437 55.1449 157.462 57.2655 160.035 58.784C162.663 60.2501 165.646 60.9831 168.985 60.9831C172.106 60.9831 174.843 60.3286 177.196 59.0196C179.605 57.6582 183.5 54.8008 185 50.3008H197.5C195 58.5196 190.718 63.0252 185.9 66.1668C181.138 69.2561 175.527 70.8008 169.067 70.8008C163.593 70.8008 158.639 69.6227 154.205 67.2664C149.826 64.8578 146.35 61.5329 143.777 57.2917C141.259 53.0504 140 48.2332 140 42.8401Z" fill="#080808"/>
<path d="M212 14.8008V70.8008H202V14.8008H212Z" fill="#080808"/>
<path d="M390 14.8008V70.8008H380V14.8008H390Z" fill="#080808"/>
<path d="M375 14.8008V24.5378H350.694V40.8008H369V50.3008H350.694V70.8008H339V14.8008H375Z" fill="#080808"/>
<path d="M273 40.8008V44.9546C273 52.6469 270.508 58.8777 265.523 63.6469C260.538 68.4162 254.1 70.8008 246.207 70.8008C237.796 70.8008 230.812 68.1085 225.256 62.7239C219.752 57.288 217 50.6726 217 42.8777C217 35.0316 219.726 28.3905 225.178 22.9546C230.682 17.5187 237.484 14.8008 245.584 14.8008C250.673 14.8008 255.32 15.9546 259.526 18.2623C263.5 20.3008 268.5 24.3008 271.5 32.3008L260.149 32.57C258.851 30.3649 256.878 28.57 254.229 27.1854C251.633 25.8008 248.726 25.1085 245.506 25.1085C240.314 25.1085 236.03 26.8008 232.655 30.1854C229.332 33.5187 227.67 37.7495 227.67 42.8777C227.67 47.9546 229.358 52.1598 232.733 55.4931C236.16 58.7751 240.677 60.4162 246.285 60.4162C250.439 60.4162 253.866 59.5187 256.566 57.7239C259.318 55.8777 261.187 53.3649 262.174 50.1854H245.662V40.8008H273Z" fill="#080808"/>
<path d="M321.311 70.8008L317.5 60.8008H294.5L290.604 70.8008H278L298.725 14.8008H313.19L334 70.8008H321.311ZM297.879 50.4008H314.121L306 27.5208L297.879 50.4008Z" fill="#080808"/>
<path d="M10 68.7015C10 69.6956 9.19411 70.5015 8.2 70.5015H1.8C0.805888 70.5015 0 69.6956 0 68.7015V25.4982C0 24.7875 0.418246 24.1433 1.06749 23.854L7.46749 21.0028C8.65797 20.4724 10 21.3437 10 22.647V68.7015ZM25 68.7015C25 69.6956 24.1941 70.5015 23.2 70.5015H16.8C15.8059 70.5015 15 69.6956 15 68.7015V18.8157C15 18.1049 15.4183 17.4607 16.0676 17.1714L22.4676 14.3208C23.6581 13.7906 25 14.6619 25 15.9651V68.7015ZM40 68.7015C40 69.6956 39.1941 70.5015 38.2 70.5015H31.8C30.8059 70.5015 30 69.6956 30 68.7015V12.1341C30 11.4233 30.4183 10.779 31.0676 10.4898L37.4676 7.63918C38.6581 7.10893 40 7.98024 40 9.28345V68.7015ZM108.932 23.8414C109.582 24.1306 110 24.7749 110 25.4858V38.679C110 39.6731 109.194 40.479 108.2 40.479H76.8C75.8059 40.479 75 39.6731 75 38.679V26.5993C75 25.6052 74.1941 24.7993 73.2 24.7993H66.8C65.8059 24.7993 65 25.6052 65 26.5993V68.7015C65 69.6956 64.1941 70.5015 63.2 70.5015H46.8C45.8059 70.5015 45 69.6956 45 68.7015V5.45243C45 4.74162 45.4183 4.09737 46.0676 3.80816L54.2678 0.155729C54.7339 -0.0518701 55.2662 -0.0519112 55.7323 0.155615L108.932 23.8414ZM108.2 50.479C109.194 50.479 110 51.2849 110 52.279V68.7015C110 69.6956 109.194 70.5015 108.2 70.5015H76.8C75.8059 70.5015 75 69.6956 75 68.7015V52.279C75 51.2849 75.8059 50.479 76.8 50.479H108.2Z" fill="#F5751D"/>
</svg>
