<svg width="1189" height="1189" viewBox="0 0 1189 1189" fill="none" xmlns="http://www.w3.org/2000/svg">
<rect width="1189" height="1189" rx="594.5" fill="#F8F9FD"/>
<rect x="366.5" y="166.5" width="440" height="860" rx="63.5" fill="white" fill-opacity="0.36" stroke="#139678" stroke-width="33"/>
<rect x="424" y="371" width="341" height="85" rx="20" fill="#E4EBF2"/>
<rect x="424" y="756" width="341" height="85" rx="20" fill="#E4EBF2"/>
<rect x="514" y="977" width="145" height="17" rx="8.5" fill="#139678"/>
<rect x="535" y="213" width="102" height="17" rx="8.5" fill="#139678"/>
<path d="M981 516H435C415.67 516 400 531.67 400 551V693C400 712.33 415.67 728 435 728H662.662C673.016 728 679.474 739.224 674.27 748.176C673.758 749.056 673.348 749.991 673.048 750.964L656.87 803.368C655.094 809.12 662.039 813.542 666.5 809.5L760.473 735.502C766.644 730.642 774.271 728 782.126 728H981C1000.33 728 1016 712.33 1016 693V551C1016 531.67 1000.33 516 981 516Z" fill="#005340"/>
<path d="M1012 485.5H464C445.222 485.5 430 500.722 430 519.5V663.5C430 682.278 445.222 697.5 464 697.5H686.808C698.056 697.5 706.288 708.103 703.5 719L677.523 796.432C677.508 796.477 677.5 796.524 677.5 796.572C677.5 796.943 677.931 797.148 678.219 796.913L790.615 705.162C796.685 700.206 804.28 697.5 812.115 697.5H1012C1030.78 697.5 1046 682.278 1046 663.5V519.5C1046 500.722 1030.78 485.5 1012 485.5Z" fill="#139678" stroke="white" stroke-width="19"/>
<path d="M687.68 593.984L668.608 597.44L682.176 611.52L669.12 620.864L659.904 603.584L650.688 620.864L637.504 611.52L651.072 597.44L632 593.984L636.864 578.88L654.528 587.328L651.84 568H667.84L665.152 587.328L682.816 578.88L687.68 593.984Z" fill="white"/>
<path d="M763.68 593.984L744.608 597.44L758.176 611.52L745.12 620.864L735.904 603.584L726.688 620.864L713.504 611.52L727.072 597.44L708 593.984L712.864 578.88L730.528 587.328L727.84 568H743.84L741.152 587.328L758.816 578.88L763.68 593.984Z" fill="white"/>
<path d="M839.68 593.984L820.608 597.44L834.176 611.52L821.12 620.864L811.904 603.584L802.688 620.864L789.504 611.52L803.072 597.44L784 593.984L788.864 578.88L806.528 587.328L803.84 568H819.84L817.152 587.328L834.816 578.88L839.68 593.984Z" fill="white"/>
<path d="M915.68 593.984L896.608 597.44L910.176 611.52L897.12 620.864L887.904 603.584L878.688 620.864L865.504 611.52L879.072 597.44L860 593.984L864.864 578.88L882.528 587.328L879.84 568H895.84L893.152 587.328L910.816 578.88L915.68 593.984Z" fill="white"/>
<path d="M991.68 593.984L972.608 597.44L986.176 611.52L973.12 620.864L963.904 603.584L954.688 620.864L941.504 611.52L955.072 597.44L936 593.984L940.864 578.88L958.528 587.328L955.84 568H971.84L969.152 587.328L986.816 578.88L991.68 593.984Z" fill="white"/>
<rect x="496" y="568.484" width="90.2377" height="79.5164" rx="12" fill="white"/>
<path d="M514.092 570.717V562.153C514.092 557.416 515.545 552.792 518.256 548.907V548.907C522.586 542.699 529.677 539 537.246 539H544.565C552.329 539 559.535 543.032 563.597 549.649V549.649C565.697 553.07 566.836 556.994 566.894 561.008L567.029 570.27" stroke="white" stroke-width="18"/>
<path d="M550.5 597.521C550.5 603.195 545.9 607.795 540.225 607.795C534.551 607.795 529.951 603.195 529.951 597.521C529.951 591.846 534.551 587.246 540.225 587.246C545.9 587.246 550.5 591.846 550.5 597.521Z" fill="#139678"/>
<path d="M536.794 628.344C535.553 628.344 534.612 627.226 534.823 626.003L538.151 606.774C538.317 605.815 539.149 605.115 540.122 605.115H541.222C542.195 605.115 543.027 605.815 543.193 606.774L546.521 626.003C546.733 627.226 545.791 628.344 544.55 628.344H536.794Z" fill="#139678"/>
<path d="M550.5 597.521C550.5 603.195 545.9 607.795 540.225 607.795C534.551 607.795 529.951 603.195 529.951 597.521C529.951 591.846 534.551 587.246 540.225 587.246C545.9 587.246 550.5 591.846 550.5 597.521Z" stroke="black"/>
<path d="M536.794 628.344C535.553 628.344 534.612 627.226 534.823 626.003L538.151 606.774C538.317 605.815 539.149 605.115 540.122 605.115H541.222C542.195 605.115 543.027 605.815 543.193 606.774L546.521 626.003C546.733 627.226 545.791 628.344 544.55 628.344H536.794Z" stroke="black"/>
</svg>
