<svg width="1394" height="268" viewBox="0 0 1394 268" fill="none" xmlns="http://www.w3.org/2000/svg">
<path d="M270.278 108.125H214.364C212.769 98.9551 209.829 90.8321 205.543 83.7557C201.258 76.5795 195.925 70.4998 189.547 65.5163C183.168 60.5329 175.892 56.7953 167.719 54.3036C159.646 51.7122 150.925 50.4166 141.556 50.4166C124.911 50.4166 110.161 54.6026 97.3033 62.9748C84.446 71.2473 74.3795 83.4068 67.1037 99.4535C59.8279 115.4 56.19 134.886 56.19 157.909C56.19 181.331 59.8279 201.066 67.1037 217.112C74.4792 233.059 84.5457 245.119 97.3033 253.292C110.161 261.365 124.862 265.402 141.407 265.402C150.576 265.402 159.148 264.206 167.121 261.814C175.194 259.322 182.42 255.684 188.799 250.9C195.277 246.116 200.709 240.235 205.095 233.259C209.58 226.282 212.67 218.308 214.364 209.338L270.278 209.637C268.185 224.189 263.65 237.843 256.673 250.601C249.796 263.358 240.776 274.621 229.613 284.388C218.45 294.056 205.394 301.631 190.444 307.113C175.493 312.495 158.898 315.186 140.659 315.186C113.749 315.186 89.7285 308.957 68.5987 296.498C47.469 284.04 30.8243 266.049 18.6648 242.528C6.50521 219.006 0.425427 190.8 0.425427 157.909C0.425427 124.919 6.55504 96.7126 18.8143 73.2905C31.0735 49.7687 47.768 31.7785 68.8977 19.3199C90.0275 6.86137 113.948 0.632091 140.659 0.632091C157.702 0.632091 173.55 3.02413 188.201 7.80822C202.852 12.5923 215.909 19.619 227.371 28.8881C238.833 38.0576 248.251 49.3202 255.627 62.6758C263.102 75.9317 267.986 91.0813 270.278 108.125ZM384.957 4.81817V311H329.492V4.81817H384.957ZM658.558 102.593C656.066 94.5199 652.628 87.2939 648.242 80.9151C643.956 74.4367 638.774 68.9051 632.694 64.3203C626.714 59.7356 619.837 56.297 612.062 54.0046C604.288 51.6126 595.817 50.4166 586.647 50.4166C570.202 50.4166 555.55 54.5528 542.693 62.8253C529.836 71.0978 519.72 83.2573 512.344 99.304C505.068 115.251 501.43 134.686 501.43 157.61C501.43 180.733 505.068 200.318 512.344 216.365C519.62 232.411 529.736 244.621 542.693 252.993C555.65 261.265 570.7 265.402 587.843 265.402C603.391 265.402 616.847 262.412 628.209 256.431C639.671 250.451 648.491 241.98 654.671 231.016C660.85 219.953 663.94 206.996 663.94 192.145L676.498 194.089H593.375V150.733H717.611V187.511C717.611 213.723 712.03 236.398 700.867 255.534C689.704 274.671 674.355 289.422 654.82 299.787C635.285 310.053 612.86 315.186 587.544 315.186C559.338 315.186 534.57 308.857 513.241 296.199C492.012 283.442 475.417 265.352 463.457 241.93C451.596 218.408 445.666 190.501 445.666 158.208C445.666 133.49 449.154 111.414 456.131 91.9783C463.207 72.543 473.075 56.0478 485.733 42.4929C498.39 28.8383 513.241 18.4728 530.284 11.3963C547.328 4.22016 565.866 0.632091 585.899 0.632091C602.843 0.632091 618.641 3.12381 633.292 8.10724C647.943 12.991 660.95 19.9678 672.312 29.0376C683.774 38.1075 693.193 48.8717 700.568 61.3302C707.944 73.7888 712.778 87.5431 715.07 102.593H658.558ZM809.529 311H750.326L858.117 4.81817H926.59L1034.53 311H975.327L893.549 67.6094H891.157L809.529 311ZM811.472 190.949H972.935V235.501H811.472V190.949ZM1083.28 311V4.81817H1279.43V51.3136H1138.74V134.437H1265.97V180.933H1138.74V311H1083.28ZM1393.84 4.81817V311H1338.38V4.81817H1393.84Z" fill="white"/>
</svg>
